# xmcd
#
# Track frame offsets:
#	150
#	19922
#	40536
#	61444
#	77148
#	93488
#	113324
#	136071
#	156255
#	170061
#	191310
#	219515
#
# Disc length: 3155 seconds
#
# Revision: 1
# Processed by: cddbd v1.5.2PL0 Copyright (c) Steve Scherf et al.
# Submitted via: audiograbber 1.83.01
#
DISCID=940c510c
DTITLE=Jimmy Dillon - Everything
DYEAR=2006
DGENRE=Blues
TTITLE0=Everything
TTITLE1=Somebody Like You
TTITLE2=Mona Lisa
TTITLE3=Temptation
TTITLE4=With A Girl Like You
TTITLE5=When Did We Fall Out Of Love
TTITLE6=Moanin' These Blues
TTITLE7=3 More Days
TTITLE8=Can't Take It With You
TTITLE9=Te Quiero
TTITLE10=It's All Over Now - Baby Blue
TTITLE11=River Song
EXTD=
EXTT0=
EXTT1=
EXTT2=
EXTT3=
EXTT4=
EXTT5=
EXTT6=
EXTT7=
EXTT8=
EXTT9=
EXTT10=
EXTT11=
PLAYORDER=
